<?xml version="1.0" encoding="utf-8"?>
<!-- Generator: Adobe Illustrator 28.3.0, SVG Export Plug-In . SVG Version: 6.00 Build 0)  -->
<svg version="1.1" id="Capa_1" xmlns="http://www.w3.org/2000/svg" xmlns:xlink="http://www.w3.org/1999/xlink" x="0px" y="0px"
	 viewBox="0 0 300 55" style="enable-background:new 0 0 300 55;" xml:space="preserve">
<style type="text/css">
	.st0{fill:#FFFFFF;}
</style>
<g>
	<path class="st0" d="M76.7,17l-7,21.1h4.7l1.7-5.2h8.8l1.7,5.2h4.9L84.3,17L76.7,17L76.7,17z M77.4,28.9l2.6-8.1H81l2.6,8.1H77.4z"
		/>
	<polygon class="st0" points="92.1,17 92.1,20.4 94,20.4 94,38.1 98.6,38.1 98.6,20.4 98.6,17 94,17 	"/>
	<path class="st0" d="M118,24.1c-0.6-0.7-1.4-1.3-2.2-1.7c-0.9-0.4-1.9-0.6-2.9-0.6c-1.2,0-2.3,0.3-3.3,0.8
		c-0.9,0.5-1.5,1.2-2.1,2.1V17h-4.6v21.1h3.7v-3.4c0.1,0.3,0.2,0.5,0.3,0.8c0.6,1,1.3,1.8,2.3,2.4s2.1,0.8,3.4,0.8
		c1.1,0,2.2-0.2,3.1-0.6s1.7-1,2.3-1.7c0.6-0.7,1.1-1.6,1.5-2.6c0.3-1,0.5-2,0.5-3.2v-0.6c0-1.2-0.2-2.2-0.5-3.2
		C119.1,25.6,118.7,24.8,118,24.1z M114.8,32.5c-0.3,0.7-0.8,1.2-1.4,1.6c-0.6,0.4-1.3,0.6-2.1,0.6c-0.7,0-1.3-0.2-1.9-0.5
		c-0.6-0.3-1.1-0.8-1.5-1.3c-0.4-0.6-0.6-1.3-0.6-2.1v-1.1c0-0.9,0.2-1.6,0.6-2.2c0.4-0.6,0.9-1.1,1.5-1.4c0.6-0.3,1.3-0.5,2-0.5
		c0.8,0,1.5,0.2,2.1,0.6c0.6,0.4,1,0.9,1.4,1.6c0.3,0.7,0.5,1.5,0.5,2.4C115.3,31,115.2,31.8,114.8,32.5z"/>
	<path class="st0" d="M134.5,22.9c-1.2-0.8-2.6-1.1-4.3-1.1c-1.3,0-2.4,0.2-3.4,0.7c-1,0.5-1.9,1.1-2.5,1.8
		c-0.7,0.8-1.2,1.6-1.5,2.6c-0.4,1-0.5,2-0.5,3v0.6c0,1,0.2,2,0.5,3c0.4,1,0.9,1.8,1.6,2.6c0.7,0.8,1.5,1.4,2.6,1.9
		c1,0.5,2.2,0.7,3.6,0.7c1.3,0,2.5-0.2,3.5-0.7c1-0.5,1.9-1.1,2.5-1.9c0.7-0.8,1.1-1.8,1.4-2.8h-4.2c-0.2,0.5-0.6,0.9-1.1,1.2
		c-0.5,0.3-1.2,0.5-2.1,0.5c-0.9,0-1.7-0.2-2.3-0.6c-0.6-0.4-1-0.9-1.3-1.6c-0.1-0.4-0.3-0.8-0.3-1.3h11.5v-1.6c0-1.4-0.3-2.8-0.9-4
		C136.6,24.6,135.7,23.6,134.5,22.9z M126.6,28.8c0.1-0.4,0.2-0.8,0.3-1.1c0.3-0.7,0.7-1.2,1.3-1.6c0.6-0.4,1.2-0.5,2-0.5
		c0.8,0,1.4,0.2,2,0.5c0.5,0.4,0.9,0.9,1.2,1.5c0.1,0.4,0.2,0.8,0.3,1.2H126.6z"/>
	<path class="st0" d="M146.2,23.9c-0.7,0.9-1.2,2.1-1.3,3.6v-5.2h-3.7v15.8h4.6V30c0-1.3,0.3-2.3,1-3c0.7-0.7,1.7-1,2.9-1h1.2v-4
		h-0.6C148.5,22.1,147.2,22.7,146.2,23.9z"/>
	<path class="st0" d="M158.5,18h-4.3v4.3h-2.4v3.4h2.4v6.3c0,1.6,0.2,2.9,0.7,3.8c0.5,0.9,1.2,1.6,2.2,2c1,0.4,2.3,0.6,3.9,0.6h2.2
		v-3.9h-2.3c-0.7,0-1.3-0.2-1.7-0.6c-0.4-0.4-0.6-1-0.6-1.7v-6.4h4.6v-3.4h-4.6L158.5,18L158.5,18z"/>
	<path class="st0" d="M180.3,24.1c-0.8-0.8-1.7-1.3-2.7-1.8c-1.1-0.4-2.3-0.6-3.7-0.6c-1.3,0-2.5,0.2-3.6,0.6c-1.1,0.4-2,1-2.8,1.8
		c-0.8,0.8-1.3,1.6-1.7,2.6c-0.4,1-0.6,2-0.6,3.1v0.7c0,1.1,0.2,2.1,0.6,3.1c0.4,1,0.9,1.8,1.7,2.6s1.6,1.3,2.7,1.8
		c1.1,0.4,2.3,0.6,3.7,0.6c1.4,0,2.6-0.2,3.7-0.6c1.1-0.4,2-1,2.7-1.8c0.7-0.8,1.3-1.6,1.7-2.6c0.4-1,0.6-2,0.6-3.1v-0.7
		c0-1.1-0.2-2.1-0.6-3.1C181.6,25.8,181,24.9,180.3,24.1z M177.5,32.5c-0.3,0.7-0.8,1.2-1.4,1.6c-0.6,0.4-1.3,0.6-2.3,0.6
		c-0.9,0-1.6-0.2-2.2-0.6c-0.6-0.4-1.1-0.9-1.4-1.6c-0.3-0.7-0.5-1.5-0.5-2.3c0-0.9,0.2-1.7,0.5-2.4c0.3-0.7,0.8-1.2,1.4-1.6
		c0.6-0.4,1.3-0.6,2.2-0.6c0.9,0,1.6,0.2,2.2,0.6c0.6,0.4,1.1,0.9,1.4,1.6c0.3,0.7,0.5,1.5,0.5,2.4C178,31.1,177.8,31.8,177.5,32.5z
		"/>
	<path class="st0" d="M204.4,26.4c-1.2-0.5-2.5-0.9-4.1-1l-1.6-0.1c-1-0.1-1.7-0.3-2.1-0.8c-0.4-0.4-0.6-1-0.6-1.6
		c0-0.5,0.1-0.9,0.3-1.3c0.2-0.4,0.6-0.7,1.1-0.9c0.5-0.2,1.1-0.3,1.7-0.3c0.7,0,1.3,0.1,1.8,0.4c0.5,0.3,0.9,0.6,1.1,1.1
		c0.2,0.4,0.4,0.9,0.4,1.4h4.6c0-1.4-0.3-2.6-1-3.6c-0.6-1-1.5-1.8-2.7-2.4c-1.2-0.6-2.6-0.9-4.3-0.9c-1.6,0-2.9,0.3-4.1,0.8
		s-2.1,1.3-2.7,2.3c-0.6,1-1,2.1-1,3.5c0,1.9,0.6,3.4,1.9,4.5c1.3,1.1,2.9,1.8,5,2l1.6,0.1c1.3,0.1,2.2,0.4,2.8,0.8
		c0.6,0.4,0.9,0.9,0.9,1.6c0,0.5-0.2,1-0.5,1.4c-0.3,0.4-0.8,0.7-1.4,1c-0.6,0.2-1.3,0.3-2.2,0.3c-1,0-1.8-0.1-2.4-0.4
		c-0.6-0.3-1.1-0.6-1.4-1.1c-0.3-0.5-0.4-1-0.4-1.5h-4.6c0,1.4,0.3,2.6,1,3.6c0.7,1,1.7,1.9,3,2.5c1.3,0.6,2.9,0.9,4.8,0.9
		c1.8,0,3.3-0.3,4.6-0.8c1.3-0.6,2.3-1.3,3-2.4c0.7-1,1.1-2.2,1.1-3.5c0-1.3-0.3-2.4-1-3.3C206.5,27.7,205.6,26.9,204.4,26.4z"/>
	<path class="st0" d="M221,22.7c-1.1-0.5-2.5-0.7-4.1-0.7c-0.6,0-1.2,0-1.8,0c-0.6,0-1.3,0-1.8,0.1c-0.6,0-1.1,0.1-1.6,0.1v3.9
		c0.6,0,1.3-0.1,2-0.1c0.7,0,1.4-0.1,2.1-0.1c0.7,0,1.3,0,1.7,0c0.8,0,1.5,0.2,1.8,0.6c0.4,0.4,0.6,1,0.6,1.8v0.1h-2.9
		c-1.4,0-2.6,0.2-3.7,0.5c-1.1,0.4-1.9,0.9-2.5,1.6c-0.6,0.7-0.9,1.7-0.9,2.8c0,1.1,0.2,2,0.7,2.7c0.5,0.8,1.1,1.3,2,1.7
		c0.9,0.4,1.9,0.6,3,0.6c1.1,0,2-0.2,2.8-0.6c0.8-0.4,1.4-1,1.8-1.7c0.2-0.3,0.4-0.7,0.5-1.1v3.1h3.7v-9.7c0-1.5-0.3-2.7-0.9-3.6
		C222.9,23.9,222.1,23.2,221,22.7z M219.9,32.2c0,0.8-0.2,1.4-0.5,1.8c-0.3,0.4-0.6,0.8-1,0.9c-0.4,0.2-0.9,0.3-1.4,0.3
		c-0.8,0-1.4-0.2-1.9-0.6c-0.4-0.4-0.6-0.9-0.6-1.5c0-0.7,0.2-1.2,0.6-1.6c0.4-0.4,1.1-0.6,1.9-0.6h2.9V32.2z"/>
	<path class="st0" d="M237.5,21.8h-0.2c-1.2,0-2.2,0.3-3.1,0.8c-0.8,0.5-1.5,1.3-1.9,2.4c-0.1,0.4-0.3,0.8-0.4,1.2v-4h-3.7v15.8h4.6
		v-9.2c0-0.9,0.3-1.6,0.8-2.2c0.5-0.5,1.2-0.8,2.1-0.8c0.8,0,1.5,0.3,2,0.8c0.5,0.5,0.8,1.2,0.8,2.1v9.3h4.6v-9
		c0-2.4-0.5-4.3-1.5-5.5C240.8,22.4,239.4,21.8,237.5,21.8z"/>
	<path class="st0" d="M256.8,33.4c-0.3,0.4-0.6,0.7-1,0.9c-0.4,0.2-1,0.3-1.6,0.3c-0.8,0-1.5-0.2-2-0.6c-0.5-0.4-0.9-0.9-1.1-1.6
		c-0.2-0.7-0.3-1.4-0.3-2.3c0-0.9,0.1-1.7,0.4-2.4c0.2-0.7,0.6-1.2,1.1-1.6s1.1-0.6,1.9-0.6c0.9,0,1.6,0.2,2.1,0.7
		c0.5,0.5,0.8,1.1,0.9,1.8h4.5c-0.1-1.3-0.4-2.4-1.1-3.4c-0.7-1-1.5-1.7-2.6-2.3c-1.1-0.5-2.4-0.8-3.8-0.8c-1.3,0-2.5,0.2-3.5,0.7
		c-1,0.4-1.9,1-2.5,1.8c-0.7,0.8-1.2,1.6-1.5,2.6c-0.3,1-0.5,2-0.5,3.1v0.5c0,1,0.2,2,0.5,3s0.8,1.8,1.5,2.6
		c0.7,0.8,1.5,1.4,2.5,1.8c1,0.5,2.2,0.7,3.6,0.7c1.4,0,2.7-0.3,3.8-0.8c1.1-0.5,2-1.3,2.7-2.3s1-2.1,1.1-3.4h-4.5
		C257.3,32.6,257.1,33,256.8,33.4z"/>
	<path class="st0" d="M274.3,21.8h-0.2c-1.2,0-2.2,0.3-3,0.9c-0.7,0.5-1.3,1.3-1.7,2.3V17h-4.6v21.1h4.6v-8.9V29
		c0-0.9,0.3-1.7,0.8-2.2c0.5-0.6,1.2-0.8,2.1-0.8c0.8,0,1.5,0.3,2,0.8c0.5,0.5,0.8,1.2,0.8,2.1v9.3h4.6v-9c0-2.4-0.5-4.2-1.4-5.4
		C277.3,22.4,276,21.8,274.3,21.8z"/>
	<path class="st0" d="M299.4,26.7c-0.4-1-1-1.9-1.7-2.6c-0.8-0.8-1.7-1.3-2.7-1.8c-1.1-0.4-2.3-0.6-3.7-0.6c-1.3,0-2.5,0.2-3.6,0.6
		c-1.1,0.4-2,1-2.8,1.8c-0.8,0.8-1.3,1.6-1.7,2.6c-0.4,1-0.6,2-0.6,3.1v0.7c0,1.1,0.2,2.1,0.6,3.1s0.9,1.8,1.7,2.6s1.6,1.3,2.7,1.8
		c1.1,0.4,2.3,0.6,3.7,0.6c1.4,0,2.6-0.2,3.7-0.6c1.1-0.4,2-1,2.7-1.8s1.3-1.6,1.7-2.6s0.6-2,0.6-3.1v-0.7
		C300,28.8,299.8,27.7,299.4,26.7z M294.9,32.5c-0.3,0.7-0.8,1.2-1.4,1.6c-0.6,0.4-1.3,0.6-2.3,0.6c-0.9,0-1.6-0.2-2.2-0.6
		c-0.6-0.4-1.1-0.9-1.4-1.6c-0.3-0.7-0.5-1.5-0.5-2.3c0-0.9,0.2-1.7,0.5-2.4c0.3-0.7,0.8-1.2,1.4-1.6c0.6-0.4,1.3-0.6,2.2-0.6
		c0.9,0,1.6,0.2,2.2,0.6c0.6,0.4,1.1,0.9,1.4,1.6c0.3,0.7,0.5,1.5,0.5,2.4C295.4,31.1,295.2,31.8,294.9,32.5z"/>
	<polygon class="st0" points="21.3,22.7 19.4,28.5 23.9,28.5 22,22.7 	"/>
	<path class="st0" d="M53.7,0.8H3.2C1.4,0.8,0,2.3,0,4V51c0,1.8,1.4,3.2,3.2,3.2h50.5c1.8,0,3.2-1.4,3.2-3.2V4
		C56.9,2.3,55.5,0.8,53.7,0.8z M12.3,11.9h-0.5c-0.7,0-1.3,0.4-1.6,1.1c-0.4,0.7-0.6,1.7-0.6,3.1v6.7c0,1.3-0.2,2.4-0.6,3.1
		s-1,1.2-1.7,1.3v0.3C8,27.7,8.6,28.2,9,28.9c0.4,0.7,0.6,1.8,0.6,3.1v6.9c0,1.4,0.2,2.4,0.6,3.1c0.4,0.7,0.9,1.1,1.6,1.1h0.5V46
		h-0.5c-1.3,0-2.4-0.6-3.2-1.9c-0.8-1.3-1.2-3.1-1.2-5.4v-7.1c0-0.8-0.2-1.4-0.5-1.8c-0.3-0.4-0.7-0.6-1.2-0.6v-3.5
		c0.5,0,0.9-0.2,1.2-0.6c0.3-0.4,0.5-1,0.5-1.8v-7c0-2.3,0.4-4.1,1.2-5.4C9.4,9.6,10.5,9,11.8,9h0.5V11.9z M26.1,35.1l-1.2-3.8h-6.3
		l-1.2,3.8h-3.4l5-15.2h5.5l5.2,15.2H26.1z M42.2,33.2c-0.5,0.7-1.2,1.3-2.2,1.7c-0.9,0.4-2,0.6-3.3,0.6c-1.4,0-2.5-0.2-3.5-0.7
		c-0.9-0.4-1.7-1-2.1-1.8c-0.5-0.8-0.7-1.6-0.7-2.6h3.3c0,0.4,0.1,0.7,0.3,1.1c0.2,0.3,0.5,0.6,1,0.8c0.4,0.2,1,0.3,1.7,0.3
		c0.6,0,1.2-0.1,1.6-0.2c0.4-0.2,0.8-0.4,1-0.7c0.2-0.3,0.3-0.6,0.3-1c0-0.5-0.2-0.9-0.6-1.2C38.6,29.2,38,29,37,29l-1.1-0.1
		c-1.5-0.1-2.7-0.6-3.6-1.4c-0.9-0.8-1.4-1.9-1.4-3.2c0-1,0.2-1.8,0.7-2.5c0.5-0.7,1.1-1.2,1.9-1.6c0.8-0.4,1.8-0.6,2.9-0.6
		c1.2,0,2.2,0.2,3.1,0.6c0.9,0.4,1.5,1,2,1.7c0.5,0.7,0.7,1.6,0.7,2.6h-3.3c0-0.4-0.1-0.7-0.3-1c-0.2-0.3-0.4-0.6-0.8-0.8
		c-0.4-0.2-0.8-0.3-1.3-0.3c-0.5,0-0.9,0.1-1.3,0.2c-0.3,0.2-0.6,0.4-0.8,0.7c-0.2,0.3-0.2,0.6-0.2,0.9c0,0.4,0.2,0.8,0.5,1.1
		c0.3,0.3,0.8,0.5,1.5,0.6l1.2,0.1c1.1,0.1,2.1,0.3,2.9,0.7c0.8,0.4,1.5,0.9,2,1.6c0.5,0.7,0.7,1.5,0.7,2.4
		C43,31.6,42.8,32.5,42.2,33.2z M51.2,29.2c-0.5,0-0.9,0.2-1.2,0.6c-0.3,0.4-0.5,1-0.5,1.8v7.1c0,2.3-0.4,4.1-1.2,5.4
		c-0.8,1.3-1.9,1.9-3.2,1.9h-0.5v-2.9h0.5c0.7,0,1.3-0.4,1.6-1.1c0.4-0.7,0.6-1.7,0.6-3.1V32c0-1.4,0.2-2.4,0.6-3.1
		c0.4-0.7,1-1.2,1.7-1.3v-0.3c-0.7-0.2-1.3-0.6-1.7-1.3s-0.6-1.8-0.6-3.1v-6.7c0-1.4-0.2-2.4-0.6-3.1c-0.4-0.7-0.9-1.1-1.6-1.1h-0.5
		V9h0.5c1.3,0,2.4,0.6,3.2,1.9s1.2,3.1,1.2,5.4v7c0,0.8,0.2,1.4,0.5,1.8c0.3,0.4,0.7,0.6,1.2,0.6V29.2z"/>
</g>
</svg>
