<?xml version="1.0" encoding="utf-8"?>
<!-- Generator: Adobe Illustrator 28.3.0, SVG Export Plug-In . SVG Version: 6.00 Build 0)  -->
<svg version="1.1" id="Capa_1" xmlns="http://www.w3.org/2000/svg" xmlns:xlink="http://www.w3.org/1999/xlink" x="0px" y="0px"
	 viewBox="0 0 58 55" style="enable-background:new 0 0 58 55;" xml:space="preserve">
<style type="text/css">
	.st0{fill:#FFFFFF;}
</style>
<g>
	<polygon class="st0" points="21.8,22.7 20,28.5 24.5,28.5 22.6,22.7 	"/>
	<path class="st0" d="M54.2,0.8H3.8C2,0.8,0.5,2.3,0.5,4V51c0,1.8,1.4,3.2,3.2,3.2h50.5c1.8,0,3.2-1.4,3.2-3.2V4
		C57.5,2.3,56,0.8,54.2,0.8z M12.9,11.9h-0.5c-0.7,0-1.3,0.4-1.6,1.1c-0.4,0.7-0.6,1.7-0.6,3.1v6.7c0,1.3-0.2,2.4-0.6,3.1
		c-0.4,0.7-1,1.2-1.7,1.3v0.3c0.7,0.2,1.3,0.6,1.7,1.3c0.4,0.7,0.6,1.8,0.6,3.1v6.9c0,1.4,0.2,2.4,0.6,3.1c0.4,0.7,0.9,1.1,1.6,1.1
		h0.5V46h-0.5c-1.3,0-2.4-0.6-3.2-1.9c-0.8-1.3-1.2-3.1-1.2-5.4v-7.1c0-0.8-0.2-1.4-0.5-1.8c-0.3-0.4-0.7-0.6-1.2-0.6v-3.5
		c0.5,0,0.9-0.2,1.2-0.6c0.3-0.4,0.5-1,0.5-1.8v-7c0-2.3,0.4-4.1,1.2-5.4C9.9,9.6,11,9,12.3,9h0.5V11.9z M26.6,35.1l-1.2-3.8h-6.3
		l-1.2,3.8h-3.4l5-15.2H25l5.2,15.2H26.6z M42.8,33.2c-0.5,0.7-1.2,1.3-2.2,1.7c-0.9,0.4-2,0.6-3.3,0.6c-1.4,0-2.5-0.2-3.5-0.7
		c-0.9-0.4-1.7-1-2.1-1.8c-0.5-0.8-0.7-1.6-0.7-2.6h3.3c0,0.4,0.1,0.7,0.3,1.1c0.2,0.3,0.5,0.6,1,0.8c0.4,0.2,1,0.3,1.7,0.3
		c0.6,0,1.2-0.1,1.6-0.2c0.4-0.2,0.8-0.4,1-0.7c0.2-0.3,0.3-0.6,0.3-1c0-0.5-0.2-0.9-0.6-1.2c-0.4-0.3-1.1-0.5-2-0.6l-1.1-0.1
		c-1.5-0.1-2.7-0.6-3.6-1.4c-0.9-0.8-1.4-1.9-1.4-3.2c0-1,0.2-1.8,0.7-2.5c0.5-0.7,1.1-1.2,1.9-1.6c0.8-0.4,1.8-0.6,2.9-0.6
		c1.2,0,2.2,0.2,3.1,0.6c0.9,0.4,1.5,1,2,1.7c0.5,0.7,0.7,1.6,0.7,2.6h-3.3c0-0.4-0.1-0.7-0.3-1c-0.2-0.3-0.4-0.6-0.8-0.8
		c-0.4-0.2-0.8-0.3-1.3-0.3c-0.5,0-0.9,0.1-1.3,0.2c-0.3,0.2-0.6,0.4-0.8,0.7c-0.2,0.3-0.2,0.6-0.2,0.9c0,0.4,0.2,0.8,0.5,1.1
		c0.3,0.3,0.8,0.5,1.5,0.6l1.2,0.1c1.1,0.1,2.1,0.3,2.9,0.7c0.8,0.4,1.5,0.9,2,1.6c0.5,0.7,0.7,1.5,0.7,2.4
		C43.6,31.6,43.3,32.5,42.8,33.2z M51.8,29.2c-0.5,0-0.9,0.2-1.2,0.6c-0.3,0.4-0.5,1-0.5,1.8v7.1c0,2.3-0.4,4.1-1.2,5.4
		C48.1,45.4,47,46,45.7,46h-0.5v-2.9h0.5c0.7,0,1.3-0.4,1.6-1.1c0.4-0.7,0.6-1.7,0.6-3.1V32c0-1.4,0.2-2.4,0.6-3.1
		c0.4-0.7,1-1.2,1.7-1.3v-0.3c-0.7-0.2-1.3-0.6-1.7-1.3s-0.6-1.8-0.6-3.1v-6.7c0-1.4-0.2-2.4-0.6-3.1c-0.4-0.7-0.9-1.1-1.6-1.1h-0.5
		V9h0.5c1.3,0,2.4,0.6,3.2,1.9s1.2,3.1,1.2,5.4v7c0,0.8,0.2,1.4,0.5,1.8s0.7,0.6,1.2,0.6V29.2z"/>
</g>
</svg>
